<svg xmlns="http://www.w3.org/2000/svg" viewBox="0 0 235.5321 183.5051"><defs><style>.a{fill:#ffd42f;}.b{fill:#abb867;}.c{fill:#dcc846;}.d{fill:#c5c155;}.e{fill:#97b175;}.f{fill:#80aa84;}.g{fill:#69a294;}.h{fill:#4396ae;}.i{fill:#b0ba64;}.j{fill:#9bb372;}.k{fill:#ffe275;}.l{fill:#4797ac;}</style></defs><path class="a" d="M130.1664,0c1.6831,1.98,3.3909,3.96,5.074,5.94-.198,2.8959-.4208,5.8165-.6188,8.7371l1.4108.0743L138.31,6.2373c2.9206,23.0186-.6683,46.7549,6.8313,69.1547,1.0891-1.5345,3.2672-4.6532,4.3562-6.1877.2723,5.1977.5446,10.42,1.04,15.6427.3218-8.1679-1.2623-17.0288,3.9849-24.0334l2.6732,4.8265c1.3118-1.04,3.96-3.1434,5.272-4.183-.2476,1.4356-.7673,4.3067-1.0149,5.7423-3.3414,11.5836-9.2569,22.1771-14.1081,33.1666-11.7073,26.2115-24.33,52.0269-35.7159,78.3869,1.3118,1.0643,3.9106,3.1929,5.1977,4.2572-38.9336.3465-77.8919-.52-116.8255.495,2.6731-1.2128,5.2968-2.4751,7.92-3.7869-1.2623-.693-3.7622-2.1286-5.0245-2.8464,22.5483-1.485,45.1461-3.6136,66.7291-10.742-1.8811-1.8563-3.7374-3.7126-5.5937-5.5937-2.97-.8663-5.9156-1.7574-8.8609-2.6237,1.5593-1.7078,3.1186-3.3909,4.7027-5.074-1.0891-.52-3.2177-1.5345-4.282-2.0543,5.7175-2.03,9.455-6.5838,12.5489-11.5588C48.6608,118.83,26.3352,101.356,7.3759,80.4413A26.9611,26.9611,0,0,1,23.0186,87c-.7178-1.93-2.1534-5.8165-2.8711-7.7471,8.44,6.6828,17.2763,12.8706,25.2461,20.1227a23.4648,23.4648,0,0,0,9.4055,5.1235c6.2373,4.7522,12.6478,9.6282,20.6672,10.94l-4.6285,2.4256c2.8712-.9405,5.6928-2.1038,8.6382-2.9206q4.01,2.042,8.0194,4.1582c-2.7474-2.1286-4.95-5.074-8.1927-6.4353-5.5442-1.46-6.46-7.6976-8.8609-12.0538,1.4356-.05,4.3067-.1485,5.767-.198-.1237-1.2376-.3465-3.7127-.4455-4.95,2.2771,1.0643,4.579,2.1534,6.8808,3.2177,3.391-.6683,6.7819-1.3118,10.148-1.98.9653-5.6928,1.5593-11.534.099-17.2021-3.8612-17.6228-6.856-35.3941-9.9-53.1655,2.3513,1.46,4.6779,2.8959,7.054,4.3315l.6931,8.3164,3.3414-8.3907c5.4947,18.91,9.9994,38.1663,18.5386,56.0119,1.6831,2.6732,4.5295,4.3315,6.8313,6.4353,7.8462-30.3944,5.99-62.15,10.7173-93.04M68.66,159.7193c.5941,3.5394,9.653,3.49,10.0738-.1238A9.0952,9.0952,0,0,0,68.66,159.7193Z"/><path class="b" d="M180.4112,91.48c13.5142-21.83,25.2462-44.8986,40.6662-65.4668.7178,5.4205-.8415,10.643-2.6236,15.6922,1.287-.396,3.8364-1.1633,5.0987-1.5346-5.0987,10.5935-9.7519,21.4345-16.0882,31.3845-13.2667,19.6524-19.6277,42.8938-31.88,63.1155-4.3315-1.5593-8.7372-2.8959-13.1676-4.1087C167.8624,117.2958,173.9265,104.2767,180.4112,91.48Z"/><path class="c" d="M161.4519,67.1994c4.01,3.0444,7.9946,6.0888,12.1033,9.0094-2.6484,16.0635-12.3261,29.5777-18.1921,44.4779-8.6877,20.989-19.85,40.8889-27.4738,62.3234H116.8255c-1.287-1.0643-3.8859-3.1929-5.1977-4.2572,11.3855-26.36,24.0086-52.1754,35.7159-78.3869C152.1949,89.3765,158.1105,78.783,161.4519,67.1994Z"/><path class="d" d="M173.5552,76.2088c.2227-1.2375.6683-3.7374.9158-4.9749,1.8316,6.7818,5.7917,13.0686,5.94,20.2464-6.4848,12.7964-12.5489,25.8155-17.9941,39.0821-1.1138,2.6484-2.2276,5.272-3.3909,7.8956q-10.1728,22.239-19.999,44.6511c-3.7127-.05-7.4253-.0742-11.138-.099,7.6234-21.4345,18.7861-41.3344,27.4738-62.3234C161.2291,105.7865,170.9068,92.2724,173.5552,76.2088Z"/><path class="e" d="M175.5848,134.6711c12.2518-20.2217,18.6128-43.4631,31.88-63.1155.7673,10.445-10.3708,19.85-3.1929,30.2707-1.3861,3.0444-2.7722,6.064-4.3315,9.0342-.8663,1.51-1.7326,3.02-2.5741,4.5294-3.4157,2.03-9.3065,1.8564-10.7173,6.3116-2.5493,10.0737,2.0544,20.0979,4.6285,29.7014C186.1288,145.7349,180.7825,140.2649,175.5848,134.6711Z"/><path class="f" d="M199.94,110.8605c4.1335-7.0789,7.8709-14.5785,14.38-19.8257.8416,1.8068,2.5494,5.42,3.391,7.2273-5.6928,12.0291-11.41,24.0582-16.1873,36.508.6435-6.8066.47-13.91-4.1582-19.38C198.2073,113.88,199.0736,112.37,199.94,110.8605Z"/><path class="g" d="M217.7113,98.2621l2.178-4.7522c-.1485,6.8313,0,16.7318,8.49,18.4149a18.1417,18.1417,0,0,0-.2228,11.732c-2.3761,9.455-13.7616,7.1779-19.4049,13.4151-4.5047,4.01-8.5144,8.5144-12.7963,12.7717,1.7326-5.074,3.5642-10.1233,5.569-15.0735C206.301,122.32,212.0185,110.2912,217.7113,98.2621Z"/><path class="h" d="M225.4831,129.5228c2.5989,3.4157,5.0245,6.93,7.3511,10.544-1.0148.8663-3.0444,2.5989-4.0592,3.49,2.2524,2.5989,4.5047,5.1978,6.7571,7.8214l-7.3511,15.6675c-7.6234-8.5144-19.0336-10.643-29.6766-12.8953,10.445-3.0692,21.7562-5.8661,29.0331-14.628C227.0177,137.0225,226.0029,132.0227,225.4831,129.5228Z"/><path class="i" d="M159.0262,138.458q4.1954,3.9726,8.4154,7.92-7.7223,18.5262-16.212,36.6565c-4.0839.0247-8.1431.0495-12.2023.0742Q148.903,160.7217,159.0262,138.458Z"/><path class="j" d="M167.4416,146.3784a185.9307,185.9307,0,0,0,24.1819,8.8609c-11.138,2.2276-23.9591,4.1087-31.5329,13.4894-.4951,4.6037,3.8364,9.9747,8.6629,8.6381,9.0094-2.8711,15.2219-10.6182,21.6572-17.0783a124.506,124.506,0,0,0-5.2225,22.87q-16.9668-.0372-33.9586-.1238Q159.6946,164.88,167.4416,146.3784Z"/><path class="k" d="M68.66,159.7193a9.0952,9.0952,0,0,1,10.0738-.1238C78.3127,163.2092,69.2538,163.2587,68.66,159.7193Z"/><path class="l" d="M195.51,159.4718c7.8213,8.49,16.4595,16.88,28.1173,19.5534-5.4948,6.1135-14.0092,3.7374-21.2365,4.1582A198.1233,198.1233,0,0,0,195.51,159.4718Z"/></svg>