<svg version="1" xmlns="http://www.w3.org/2000/svg" width="1258.667" height="1258.667" viewBox="0 0 944.000000 944.000000"><path d="M520.4 111.7c-.4 3.8-.8 7.6-1 8.5-.1 1-.2 1.9-.4 2-.1.2-.3 1.4-.4 2.8-.1 1.4-.6 5.2-1 8.5s-.9 7.8-1.1 10c-.8 7.6-1.5 14-2 18.3-.3 2.4-.8 7.3-1.1 11-.3 3.7-.7 8.9-.9 11.7-.2 2.7-.6 7.9-.9 11.5-.3 3.6-.8 10.1-1.1 14.5-.3 4.4-.7 10-1 12.5-.2 2.5-.7 9.2-1 15-.3 5.8-.7 12.1-1 14-.2 1.9-.6 8.5-1 14.6-.3 6.1-.8 13.6-1 16.5-.3 3-.8 9.4-1.1 14.4-.3 4.9-.7 10.6-.9 12.5-.1 1.9-.5 7.5-.9 12.5-.4 4.9-.9 10.3-1.1 12-.3 1.6-.7 5.8-.9 9.2-.3 3.4-.8 8.1-1.1 10.5-.3 2.4-.7 6.3-.9 8.8-.9 9.1-1.7 16.2-2.2 18.3-.3 1.2-.7 4-.9 6.2-.3 4.4-1.5 12.9-2.1 16-.2 1.1-.7 4.2-1 7-.3 2.7-.9 6.6-1.4 8.5-.5 1.9-1.2 5.5-1.5 8-.4 2.5-1.1 6.7-1.6 9.5-.6 2.7-1.2 6.1-1.5 7.5-.2 1.4-.7 3.6-1 5-.3 1.4-.7 3.2-.9 4-.2.8-1.1 4.6-2 8.5-.9 3.8-1.8 8-2.1 9.2-.2 1.2-.8 3.1-1.2 4.3-.8 2.1-.8 2.1-3.8-.7-1.6-1.5-4.7-4.1-6.9-5.8-8.5-6.3-15.4-14-18.8-21-7.1-14.4-19.8-46-27.9-69.5-7.6-22.1-18.6-57.6-20.4-65.9-.3-1.3-.9-3.2-1.5-4.3-.5-1-.8-1.8-.5-1.8.2 0-.5-2.8-1.6-6.3-1.7-5.3-4-13.6-5.3-18.7-.2-.8-2-7.1-4-14s-3.8-13.2-4-14c-.2-.8-1.4-4.9-2.5-9-1.2-4.1-2.6-9.4-3.2-11.8-.5-2.3-1.3-4.2-1.6-4.2-.4 0-3.4 6.8-6.7 15.1-3.3 8.3-6.2 15.2-6.5 15.4-.3.2-.7-.8-.7-2.3-.1-1.5-.5-6.5-.9-11.2-.7-8-1-11.4-1.3-15.9-.1-1.4-4.2-4.5-13.8-10.5-7.6-4.6-13.9-8.3-14.1-8.1-.4.3 1.2 11 2.5 17 .2 1.1.6 3.3.8 5 .3 1.6.7 4.1 1 5.5.3 1.4.8 4.1 1.1 6 .6 4.1 1.2 7.6 1.9 11 .4 2.5 3.2 18.9 4.1 24.5.3 1.6.9 5.2 1.4 8 .6 2.7 1.7 8.8 2.5 13.5.8 4.7 1.7 9.8 2 11.5.3 1.6.8 4.1 1 5.5.3 1.4.8 4.3 1.1 6.5.3 2.2.8 4.7 1.1 5.5.3.8.7 2.6.8 4 .1 1.4 1.1 7.2 2.3 13 1.1 5.8 2.3 11.6 2.5 13 .2 1.4 1.2 5.9 2 10 .9 4.1 1.8 8.6 2.1 10 .3 1.4 1.2 5.9 2 10s1.7 8.6 1.9 10c.3 1.4 1 4.5 1.6 7 .5 2.5 1.2 5.6 1.5 7 .3 1.4 1.2 5.6 2 9.5.9 3.8 1.9 9.2 2.3 12 1 6.8.9 29.6-.1 37-.5 3.3-.9 7.1-1 8.5-.4 4.8-1.8 11-2.4 11.1-1.6.1-6.2 1-13.7 2.5-4.4.9-8.9 1.8-10 2-1.1.2-2.9.5-4 .7-2.9.7-10.8 2.1-12 2.2-.5 0-3.7-1.3-7-2.9-13.1-6.3-20.5-9.5-20.6-8.8-.1.4 0 1.1.1 1.7.1.5.4 4.7.6 9.2l.5 8.3-8.8.1c-4.8.1-9.8.1-11 .2-1.3 0-2.3.3-2.3.7 0 .4 1.4 3.8 3.1 7.6 3.3 7.2 5.2 11.6 5.3 12.4.1.3 1.9 3.7 3.9 7.6 4.3 8 10.7 15.1 15.8 17.5 16.1 7.5 17.1 8.2 28.9 19.2 2.5 2.4 5.6 5 7 6 3.1 2.1 1.5 2.2-2.5.1-25.1-13.3-28.2-14.3-32.2-11.1-.7.5-1.3.7-1.3.3 0-.3-1.6 0-3.5.8-2 .9-3.9 1.6-4.3 1.7-1.9.4-4 1.2-6.7 2.3-1.7.8-4.6 1.6-6.5 2-3.2.5-3.3.5-1-.5 1.4-.6 3.4-1.6 4.5-2.2 1.1-.6 3.5-1.9 5.2-2.8l3.3-1.7-2.8-.7c-1.5-.5-3.6-1-4.7-1.2-2.6-.6-3.7-.9-5.5-1.5-.8-.3-4.4-1.6-8-2.8-13-4.4-31-15.2-52.5-31.3-5.5-4.1-10.9-7.3-14-8.2-8.3-2.5-22.3-10.2-29.1-16.1-1.2-1.1-4.4-3.8-7-6-2.7-2.3-6.1-5.3-7.5-6.6-1.4-1.3-4.8-4.2-7.5-6.3-2.7-2.2-5.1-4.2-5.4-4.5-.3-.3-5.2-4.3-11-8.9-5.8-4.5-11.4-9-12.5-9.9-1.1-.9-4.7-3.7-8-6.2s-14.7-11.2-25.3-19.4c-10.6-8.1-19.5-14.7-19.7-14.5-.2.2 1.2 4.2 3.1 8.9 1.8 4.7 3.4 8.7 3.5 9 .1.3.4 1.2.6 2 .2.8 1.1 3.2 1.8 5.2.7 2.1 1 3.8.5 3.8s-1-.4-1.2-.8c-.4-1.2-11.8-9.4-11.8-8.6 0 .4-.8 0-1.8-.9-3.6-3.3-22-10.9-29.4-12.2-1.7-.3-3.4-.8-3.8-1-.4-.2-3.5-.7-7.1-1.1l-6.4-.6 4.1 4.3c15.4 16.4 20.6 21.8 34 35.3 21.7 21.7 45 44 66 63.3 14.8 13.5 23.2 21.3 25.9 23.8 1.8 1.6 7.6 7 13 12 35.9 32.9 52.5 48.6 77.7 73.8 14.4 14.4 22.6 23.2 22.2 24-2.9 5-9.8 14.7-10.5 14.7-.5 0-.9.5-.9 1.1 0 1.2-.3 1.6-10.3 11.6-3.9 4-7.7 7.3-8.4 7.3-.7 0-1.3.4-1.3.9 0 .6-4 3-8.9 5.4l-8.9 4.5 7.9 3.8c4.4 2.1 7.9 4.3 7.9 4.8s-1.6 2.4-3.5 4.3-3.5 3.5-3.5 3.7c0 .2-2.2 2.7-5 5.7-2.7 3-5 5.6-5 5.9 0 .6 12.2 4.5 16.7 5.5 1 .2 4.5 1.3 7.8 2.4 3.3 1.1 6.7 2.1 7.5 2.1 1.7 0 25.3 22.7 24.2 23.3-1.3.7-16.8 5.7-19.2 6.2-1.3.2-4.4 1.1-7 2-2.6.9-5.5 1.7-6.6 2-1 .2-7.5 1.8-14.4 3.5-6.9 1.8-13.6 3.4-15 3.6-1.4.3-6.3 1.4-11 2.4-11 2.4-15 3.2-17.5 3.4-1.1.1-2.9.5-4 .8-1.1.4-3.8.9-6 1.3-2.2.3-6.5 1-9.5 1.5s-7.5 1.3-10 1.6c-2.5.3-5.4.8-6.5 1-2.8.5-8.2 1.2-13.5 1.9-2.5.3-5.6.7-7 1-1.4.2-5.2.7-8.5 1-3.3.3-7.3.8-9 1.1-2.8.4-8.2 1-16.5 1.9-1.9.2-6.9.6-11 .9-4.1.4-9.1.8-11 1-8.3 1-19.4 1.9-38 3.2-5.2.3-10.8.8-12.5.9-1.6.2-4.9.3-7.2.4-4.4.1-5.7 1.4-2.6 2.4 1 .4 4.1 2 6.8 3.7 2.8 1.7 5.8 3.3 6.7 3.6 2.6.9 3 3.2.6 3.9C26 827.4 2 839 2 839.5c0 .2 8.2.2 18.3-.1 10-.2 65.5-.7 123.2-.9 57.8-.3 105.8-.7 106.7-.9.9-.2 1.9-.1 2.2.2.5.4 51.8.5 236.1.3 14.3 0 77 .1 139.3.2 77.4.1 113.6-.1 114.2-.8.5-.6 1.1-3.5 1.4-6.5.3-3 1-7.5 1.5-10 1.1-5.2 2.1-11.2 2.7-15.5.2-1.6.7-3.8 1-4.7.3-1 .7-2.8.9-4 .9-4.8 7.4-29.7 10.3-39.1 1.6-5.3 2.8-9.7 2.6-9.7-.9 0-5.1 5-4.6 5.4.3.3-.2.6-1.1.6-.8 0-1.7.4-1.9.9-1.1 3.3-33.9 34.6-43.8 41.9-13.1 9.7-29.2 17.8-37.9 19.1-7.3 1.1-16.8-2.8-22.3-9.3-1-1.2-2.2-2.6-2.7-3.2-1.8-2.2-4.4-8-5.6-12.4-2.2-8.3-1.4-10.4 6.8-18.3 8.7-8.5 9.2-8.9 17.7-14.4 6.6-4.3 23-12.3 28.5-13.9.6-.2 3-1.1 5.5-2 2.5-.9 5.9-2 7.5-2.4 1.7-.5 6.6-1.8 11-2.9 4.4-1.2 8.9-2.3 10-2.6 1.1-.2 2-.4 2-.5 0-.1.9-.3 2-.5 1.1-.1 7.9-1.5 15-3 7.2-1.5 14-2.8 15.2-2.9 4.2-.3 3.3-1.3-2.9-3.1-3.5-1-6.7-2.1-7.3-2.4-.5-.3-1.4-.6-2-.7-2.4-.5-22-6.9-22.5-7.4-.3-.3-1.2-.6-2-.8-3.3-.7-35.8-13.2-44.5-17.2-2.2-1-5.7-2.5-7.8-3.3-2-.9-7.4-5.1-11.9-9.4-4.5-4.3-10.4-9.9-13.2-12.6-12.5-11.7-12.6-11.8-11.6-13.5 1.8-3.3 7.8-16.8 10.1-23 2.6-6.8 1.9-6.4 9.5-4.7 1.2.3 5.3 1.5 9 2.7 3.8 1.2 7.6 2.3 8.5 2.4.9.2 7.9 2.4 15.5 5 10 3.4 14.3 5.4 16 7.3 3.1 3.6 5.7 6.5 21.8 23.5 19.9 20.9 22.2 23.4 30 32 3.9 4.1 7.2 7.4 7.4 7.1.2-.2-.5-3.4-1.7-7.2-10.9-36-13.4-44.9-16.7-60.3-1.8-8.6-2.6-32-1.3-39.5 2.1-12.6 2.8-14.3 7.1-18.7 4.3-4.2 9.9-7 21.4-10.7 5-1.6 10.8-3.7 12.8-4.6 3.5-1.7 3.7-1.7 5.2.1 5.4 7 12.5 22.5 13.8 30.1.2 1.5.5 2.8.6 2.8 1.1 0 1.7 37.7.8 42-.3 1.1-.8 2.7-1.1 3.5-2.6 6-14.3 37.4-15.1 40.5-.2.5-.7 1.9-1.1 3-2.6 6.5-4.5 11.7-4.5 12.5 0 .6 12-11.1 26.8-25.9 27.4-27.5 33.8-32.8 44.9-37.1 3.2-1.2 6.7-2.6 7.8-3.1 5.7-2.4 9.5-3.7 9.5-3.3 0 .2 1.3-.2 3-1.1 1.6-.8 3.1-1.5 3.2-1.4.6.1 6.6-2.3 11.7-4.9 8.1-4 14.6-10.4 18.2-17.7 2.8-5.7 3-7 2.4-11.2-.5-2.6-1-5.5-1.3-6.3-.2-.8-.6-6.2-.8-12-.2-9.1.4-15.4 2.4-21 1.5-4.3 1.2-4.8-4.9-7-10.7-4-19.7-14.7-23.9-28.3-2.1-6.9-3.7-20.5-3.6-31.6.1-6-.2-10.7-.5-10.6-.3.2-2.3 4.2-4.4 8.9-2.1 4.7-4.1 8.3-4.5 8.1-.5-.3-1-1.6-1.4-2.9-.3-1.3-3.1-7.6-6.1-13.9l-5.6-11.6-3.1 2.7c-8.2 7.2-14.1 13.7-21.6 23.7-2.9 3.9-5.7 7.5-6.2 8.2-.6.7-1 1.5-1 1.8 0 .8-4.4 6.9-5.2 7.3-.5.2-.8.8-.8 1.4 0 .6-1.4 3-3 5.5-1.6 2.4-3 4.6-3 4.8 0 .2-1.6 3-3.5 6.2s-3.5 5.5-3.5 5.1c0-.3 2.3-5.4 5-11.3 2.8-5.9 5-11.2 5-11.8 0-.7-1.4-3.8-3-6.9-4-7.6-6.2-17.5-5.8-26.5.1-4.1.5-7.6.9-7.8.3-.3.6-1.7.7-3.2 0-1.5 1.5-6.9 3.2-11.8 1.7-5 3.2-9.5 3.3-10 .2-.6.5-1.5.9-2 1.1-1.9 10.7-29 11.3-32 1.3-6.8 1.7-10.3 1.9-16.1.2-4.9.8-6.9 3.4-10.8 1.8-2.6 3.2-4.9 3.2-5.1 0-.3 1.7-3.3 3.8-6.7 2-3.5 4.6-8.1 5.7-10.3 1.1-2.2 2.3-4.2 2.6-4.5 1-.8 27.9-54.9 28.4-57 .1-.3 2-4.4 4.3-9.3 2.3-4.8 6.1-12.6 8.3-17.5 2.3-4.8 4.3-9 4.5-9.4.4-.7-10.2 1.9-12.6 3.2-.8.4-2.7 1-4.2 1.4-2.2.5-2.6.3-2.3-1.1.3-1.8 3.2-11.6 4.2-14.3 1.2-3.2 2.2-7.1 4-16 1.5-7.5 2.5-28.8 1.3-29.5-.9-.5-23 29.8-23 31.6 0 .5-.3.9-.8.9-.4 0-1.2.9-1.7 1.9-.6 1.1-4.7 7.4-9.2 14.2-4.6 6.7-8.3 12.6-8.3 13 0 .5-.4.9-1 .9-.5 0-1 .4-1 1 0 .5-2.9 5.4-6.5 10.9-3.6 5.4-6.5 10.3-6.5 10.9 0 .6-.3 1.2-.8 1.4-1.1.4-23 36.8-34.3 56.9-.8 1.3-1.6 2.6-1.9 2.9-.3.3-1.1 1.6-1.8 2.9-5.6 9.9-12.1 21.1-14 24.1-.9 1.4-1.5 2.8-1.4 3.2.1.5-.2.8-.7.8-.5 0-1.3 1-1.7 2.2-.4 1.3-1.9 4.1-3.3 6.3s-3.1 4.9-3.7 6c-7.5 13.3-9.8 17.1-10.5 17.3-.5.2-.9.9-.9 1.5 0 .7-1.7 3.9-3.8 7.2-2 3.3-4.4 7.3-5.2 9-.8 1.6-1.8 3.2-2.1 3.5-.3.3-1.9 2.7-3.5 5.5-4.2 7.2-4.4 7.6-9.9 16.5l-4.9 8.2-1.7-10.5c-.9-5.8-2.4-12.8-3.4-15.7-.9-2.8-1.8-5.6-1.9-6.3-.2-.7-.8-2.6-1.5-4.2-1.2-3-2.5-6.3-7.6-20-1.4-3.9-3-7.9-3.5-9-.5-1.1-1.7-4.6-2.6-7.8-1.9-6.3-2.8-6-3.9 1.3-1.4 9.9-2.2 12.6-3 10.7-.4-.9-1.2-1.7-1.9-1.7-.6 0-2.2-.9-3.6-2s-5.9-4.5-10-7.6c-4.1-3-8.6-6.4-10-7.4-4-3.1-16.5-12.3-19.4-14.4-2-1.4-2.5-2.5-2.1-4.5.3-1.4.8-4 1.1-5.6.5-3.1.7-4.1 1.9-10.9l.7-4-3.9 2.9c-4 3.1-6.7 5.3-8.7 7-.6.5-2.8 2.2-4.8 3.8l-3.7 2.7-1.5-2.2c-.7-1.3-2.9-5.2-4.8-8.8-1.9-3.6-4.1-6.5-4.9-6.5-1.3 0-11.3 18.5-10.4 19.3.2.3 0 1.3-.5 2.2-.5 1-1.2 3.4-1.4 5.4-.2 1.9-.7 3.9-1 4.4-1.1 1.9-2 17.1-2.1 36.9 0 11.6-.2 20.9-.4 20.7-.3-.3-.6-1.9-.7-3.7-.1-1.7-.5-7.3-.8-12.2-.8-9.9-1.6-23.8-2.1-33-.2-3.3-.3-6.5-.4-7-.1-.6-.9.2-1.9 1.6-5.1 7.8-7.8 11.4-8.4 11.7-.5.2-.8 1-.8 1.7s-.4 1.5-.8 1.7c-.4.1-1.8 1.8-3.1 3.7l-2.4 3.3-1.2-3.8c-2.6-8.3-3.6-12-3.8-13.4-.2-.8-.5-2-.8-2.5-.3-.6-1.2-3.8-1.9-7.3-.7-3.4-1.7-6.5-2.1-6.8-.4-.2-.6-1.1-.3-1.8.3-.8 0-3.3-.6-5.6s-1.3-5.6-1.6-7.3c-.3-1.8-.6-4.1-.8-5.2-.2-1.1-.7-4-1-6.5-.3-2.5-1-7.7-1.6-11.5-.9-6.5-1.2-9.4-2.6-24.5-1.3-15.5-2.7-48.2-2.8-69.7-.1-7.3-.4-13.3-.8-13.3s-.3-1.1.2-2.4c.5-1.3.6-2.6.3-2.9-.3-.3-.7-7.7-.9-16.4-.2-8.7-.5-20.1-.8-25.3-1.1-19.5-1.7-29.6-2.1-32-.3-1.4-.8-5.9-1.1-10-.3-4.1-.7-7.6-.9-7.8-.1-.1-2.1 6.6-4.4 15-2.3 8.4-4.4 15.9-4.7 16.6-.5 1.5-6 1.2-5.8-.3.2-1 1.1-13.6 1.9-26.5.5-7.1.3-7.7-2.3-10.5-1.5-1.7-4.9-5.7-7.7-9-8.2-9.8-8.8-10.5-9.6-10.5-.4 0-1 3-1.5 6.7zm286.7 427.6c-1 .9-1.1.8-.5-.6.3-1 .9-1.5 1.2-1.2.3.3 0 1.1-.7 1.8z"/><path d="M904.5 627c.3 1.4.7 3.7 1 5.3.3 1.5 1.2 6 2.1 10 .9 3.9 1.8 8.5 2 10.2.3 1.6.9 4.5 1.4 6.4 1.1 4.2.2 6.1-6.4 12.6-6 6-17.9 15.5-19.4 15.5-.6 0-1.2.3-1.4.7-.7 1.8-20.9 12.1-31.3 16.1-3.3 1.3-6.9 2.8-8 3.2-2.6 1.2-23.2 7.9-25.9 8.5-1.2.2-6.1 1.6-11.1 3.1-9.2 2.7-12.5 4.3-8.9 4.5 2.2.1 2.5.1 11.5 2.3 3.7.8 7.8 1.7 9 2 2.3.4 18.4 4.4 20.4 5 .6.1 3 .8 5.5 1.5 5.2 1.4 9.6 2.9 12.5 4.3 1.2.5 2.7 1 3.5 1.2 4.6.8 24.3 10.7 32.8 16.5 6.1 4.1 14 10.8 18 15.3l2.5 2.8 5.9-12.1c3.2-6.6 5.8-12.2 5.8-12.4 0-.2 3-6.6 6.6-14.2 11-23 11.7-24.6 10.2-25.8-.7-.5-4.9-5.3-9.3-10.5-8.1-9.6-12.9-15.1-15.4-17.7-1.4-1.5-1.9-.9 8.3-9.6 2.7-2.3 5.3-4.5 5.9-4.9.7-.4.4-1.6-.9-3.5-2.4-3.6-4.1-6.4-5.1-8.3-.7-1.5-1.7-2.9-4-5.5-.7-.7-1.3-1.8-1.3-2.4 0-.6-.4-1.1-.8-1.1-.5 0-1.5-1.2-2.3-2.8-.8-1.5-1.6-2.9-1.9-3.2-.4-.3-2.2-2.7-4.1-5.5-1.8-2.7-4.4-6.1-5.6-7.5l-2.3-2.4.5 2.4zM787.2 753.8c1.6 4.8 3.1 9.4 3.3 10.2.2.8.4 1.6.5 1.7.2.2.3.6.4 1 .2.5 1.3 4.2 2.6 8.3 1.3 4.1 2.5 7.7 2.5 8 .1.3.9 3.2 2 6.5 1 3.3 2 6.4 2.1 7 .1.5 2.3 8.9 4.8 18.5s4.6 17.7 4.7 18c.1.3.1.9 0 1.4-.1.4.1 1.6.4 2.5.4 1.4 2.1 1.7 10.2 1.8 27.2.4 38 .3 40.3-.2 1.4-.3 3.9-.7 5.5-.9 7-1 18.3-5.2 21-8 .7-.6 2.6-2.2 4.3-3.5 1.8-1.3 3.2-2.9 3.2-3.5 0-.6-2.8-1.9-6.2-2.8-3.5-.9-7.6-2.2-9.3-2.9-1.6-.7-3.5-1.3-4.2-1.5-.7-.1-5.4-2.3-10.5-4.8-16.4-8.1-35.3-21.6-51.2-36.6-10.3-9.7-26.6-26.3-26.6-27.1 0-.4-.6-.9-1.4-1.2-1-.4-.6 1.8 1.6 8.1z"/></svg>